<svg id="Layer_1" data-name="Layer 1" xmlns="http://www.w3.org/2000/svg" xmlns:xlink="http://www.w3.org/1999/xlink" viewBox="0 0 2048 2048"><defs><style>.cls-1{fill:url(#linear-gradient);}</style><linearGradient id="linear-gradient" x1="139.29" y1="1186.83" x2="1900.56" y2="614.38" gradientUnits="userSpaceOnUse"><stop offset="0" stop-color="#17295b"/><stop offset="1" stop-color="#274081"/></linearGradient></defs><title>logo</title><path class="cls-1" d="M1812.24,850.8l2.53-752.89L1347,495.81H701.05L233.23,97.91l2.53,752.89L98,1266.3l923.63,689.62,2.35,1.75,3.25-2.44L1950,1266.3Zm-93.51-550.1V762.38L1442.12,541ZM1399.18,625.63,1688,856.85l-391.76,285.77Zm-647.44,517L360,856.85,648.82,625.63ZM329.27,300.7,605.88,541,329.27,762.38ZM212.5,1234.89,307,937.51l190.51,134.43,85.27,183.62L785.53,1307,867,1721.06Zm742.81,453.92L737.15,592.87h573.7L1092.69,1688.81ZM1262.47,1307l202.78-51.45,85.27-183.62L1741,937.51l94.47,297.38L1181,1721.06Z"/></svg>